<?xml version="1.0" encoding="utf-8"?>
<!-- Generator: Adobe Illustrator 19.0.0, SVG Export Plug-In . SVG Version: 6.00 Build 0)  -->
<svg version="1.1"
	 id="Layer_1" xmlns:dc="http://purl.org/dc/elements/1.1/" xmlns:cc="http://creativecommons.org/ns#" xmlns:rdf="http://www.w3.org/1999/02/22-rdf-syntax-ns#"
	 xmlns="http://www.w3.org/2000/svg" xmlns:xlink="http://www.w3.org/1999/xlink" x="0px" y="0px" viewBox="-156 193 198 127"
	 style="enable-background:new -156 193 198 127;" xml:space="preserve">
<path d="M-155.7,193.2h198v127h-198V193.2z M-90.4,237.8c0-29-46.2-29-46.2,0v37.7c0,29,46.5,29,46.5,0v-15.9c0-1-0.2-1.3-1.2-1.3
	h-21.2c-1,0-1.4,0.4-1.4,1.4v10.9c0,1,1.1,2.1,2.1,2.1h5c1,0,1.4,0.4,1.4,1.4v1.5c0,9.1-16.7,9.1-16.7,0v-37.1
	c0-9.9,17.3-9.7,17.3,0.2v7c0,1.5,1.5,3,3.1,3h8.3c1.5,0,3-1.7,3-3.2L-90.4,237.8L-90.4,237.8z M-58.2,215.6
	c-8.9,0.5-17.4,5.2-20.5,14.3h8.8c8.1,0,21.6,5.3,21.6,12.4v10h-31.3v2.1h31.3v10.8c0,12.4,4.1,13.5,4.1,9.3v-3.4
	c0-0.5,0.2-0.9,0.9-0.9h3.3c0.6,0,0.8,0.1,0.8,0.7v4c0,5.2-5.1,7.3-6.2,7.3H-47c-7.9-2.1-8.3-15.3-10-15.3v13.5
	c0,0.4-0.1,0.4-0.6,0.4h-11.1c-0.4,0-0.6-0.1-0.6-0.6v-9.7H-80v4.6c0,29.6,46.5,29.6,46.5,0v-37.5c0-14.2-10.7-21.5-21.8-22.1
	L-58.2,215.6L-58.2,215.6z M-76.4,237l1.3,4.1l-3.5,2.5h4.3l1.3,4.1l1.3-4.1h4.3l-3.5-2.5l1.3-4.1l-3.5,2.5L-76.4,237L-76.4,237z
	 M-61.3,237l1.3,4.1l-3.5,2.5h4.3l1.3,4.1l1.4-4.1h4.3l-3.5-2.5l1.3-4.1l-3.5,2.5L-61.3,237z M-19.8,216.8c-2.4,0-3.2,0.8-3.2,3.2
	v71.2c0,3.7,1.7,5.1,3.8,5.1h5.6c2,0,4.7-1.4,4.7-5.1l0-24.3c0-2.4,0.6-2.9,3-2.9h5c31.4,0,31.4-47.1,0-47.1L-19.8,216.8
	L-19.8,216.8z M-6.9,231.2h4.1c13.5,0,14.6,18.2-0.2,18.2h-3.7c-1.6,0-2.3-0.4-2.3-2v-14.2C-8.9,231.6-8.5,231.2-6.9,231.2
	L-6.9,231.2z"/>
</svg>
