<?xml version="1.0" encoding="utf-8"?>
<!-- Generator: Adobe Illustrator 19.0.0, SVG Export Plug-In . SVG Version: 6.00 Build 0)  -->
<svg version="1.1" id="Layer_1" xmlns="http://www.w3.org/2000/svg" xmlns:xlink="http://www.w3.org/1999/xlink" x="0px" y="0px"
	 viewBox="212 -449.7 935.8 923.7" style="enable-background:new 212 -449.7 935.8 923.7;" xml:space="preserve">
<style type="text/css">
	.st0{fill:#112A4A;}
</style>
<g transform="translate(-49.71704,-67.75)">
	<path class="st0" d="M787.5-40.1h72.4v7.2h-72.4V-40.1z M694.5-40.1h72.4v7.2h-72.4V-40.1z M601.6-40.1h72.4v7.2h-72.4V-40.1z
		 M1170.9-26.3h7.2v7.2h-7.2V-26.3z M1157.6-26.3h7.2v7.2h-7.2V-26.3z M1144.2-26.3h7.2v7.2h-7.2V-26.3z M1130.9-26.3h7.2v7.2h-7.2
		V-26.3z M1117.5-26.3h7.2v7.2h-7.2V-26.3z M1104.1-26.3h7.2v7.2h-7.2V-26.3z M1090.8-26.3h7.2v7.2h-7.2V-26.3z M1077.4-26.3h7.2
		v7.2h-7.2V-26.3z M1064-26.3h7.2v7.2h-7.2V-26.3z M1050.7-26.3h7.2v7.2h-7.2V-26.3z M1037.3-26.3h7.2v7.2h-7.2V-26.3z M1024-26.3
		h7.2v7.2h-7.2V-26.3z M1010.6-26.3h7.2v7.2h-7.2V-26.3z M997.2-26.3h7.2v7.2h-7.2V-26.3z M983.9-26.3h7.2v7.2h-7.2V-26.3z
		 M970.5-26.3h7.2v7.2h-7.2V-26.3z M957.1-26.3h7.2v7.2h-7.2V-26.3z M943.8-26.3h7.2v7.2h-7.2V-26.3z M930.4-26.3h7.2v7.2h-7.2
		V-26.3z M917.1-26.3h7.2v7.2h-7.2V-26.3z M903.7-26.3h7.2v7.2h-7.2V-26.3z M890.3-26.3h7.2v7.2h-7.2V-26.3z M890.3-11.9v7.2h287.8
		v-7.2H890.3z M890.3,180.8v7.2h287.8v-7.2H890.3z M1110.6,91.7h22.3v61.9h-22.3V91.7z M1110.4,17.3h22.3v45h-22.3V17.3z
		 M1046.1,91.7h22.3v61.9h-22.3V91.7z M1045.9,17.3h22.3v45h-22.3V17.3z M981.6,91.7h22.3v61.9h-22.3V91.7z M981.5,17.3h22.3v45
		h-22.3V17.3z M917.2,91.7h22.3v61.9h-22.3V91.7z M917,17.3h22.3v45H917V17.3z M705.8,85.8h54v86.3h-54L705.8,85.8z M722.3-6.1h22.3
		v45h-22.3V-6.1z M807.1,90.7h22.3v61.9h-22.3V90.7z M807-6.1h22.3v45H807V-6.1z M286.8,174.1v7.2h287.8v-7.2H286.8z M633.4,90.7
		h22.3v61.9h-22.3V90.7z M633.3-6.1h22.3v45h-22.3V-6.1z M520.7,90.7H543v61.9h-22.3V90.7z M520.6,16.4h22.3v45h-22.3V16.4z
		 M456.3,90.7h22.3v61.9h-22.3V90.7z M456.1,16.4h22.3v45h-22.3V16.4z M391.8,90.7h22.3v61.9h-22.3V90.7z M391.7,16.4h22.3v45h-22.3
		V16.4z M327.4,90.7h22.3v61.9h-22.3L327.4,90.7z M327.2,16.4h22.3v45h-22.3V16.4z M567.4-26.3h7.2v7.2h-7.2V-26.3z M554-26.3h7.2
		v7.2H554V-26.3z M540.7-26.3h7.2v7.2h-7.2V-26.3z M527.3-26.3h7.2v7.2h-7.2V-26.3z M513.9-26.3h7.2v7.2h-7.2V-26.3z M500.6-26.3
		h7.2v7.2h-7.2V-26.3z M487.2-26.3h7.2v7.2h-7.2V-26.3z M473.9-26.3h7.2v7.2h-7.2V-26.3z M460.5-26.3h7.2v7.2h-7.2V-26.3z
		 M447.1-26.3h7.2v7.2h-7.2V-26.3z M433.8-26.3h7.2v7.2h-7.2V-26.3z M420.4-26.3h7.2v7.2h-7.2V-26.3z M407-26.3h7.2v7.2H407V-26.3z
		 M393.7-26.3h7.2v7.2h-7.2V-26.3z M380.3-26.3h7.2v7.2h-7.2V-26.3z M367-26.3h7.2v7.2H367V-26.3z M353.6-26.3h7.2v7.2h-7.2V-26.3z
		 M340.2-26.3h7.2v7.2h-7.2L340.2-26.3z M326.9-26.3h7.2v7.2h-7.2V-26.3z M313.5-26.3h7.2v7.2h-7.2V-26.3z M300.1-26.3h7.2v7.2h-7.2
		V-26.3z M286.8-26.3h7.2v7.2h-7.2V-26.3z M286.8-11.9v7.2h287.8v-7.2H286.8z M263.7-40.6h239.9v-21.8h41.6v21.8h50.6v-21.8h-22.9
		L595.8-76v-14.1h23.1l107.4-63.8v-58.5c-1,0-1.7-1.4,2.1-1.4c3.8,0,3.2,1.4,2.1,1.4v4.4c16.3,7.5,24.1-12.2,38.9,1.5l-0.5,26.9
		c-13.8-11.9-22.2,5.9-38.4-1.8v27.5l108.7,63.7h26.5v15.9l20,11.7h-20v21.8h53.5v-21.8h41.4v21.8h238.7v260.3H263.7V-40.6z"/>
</g>
</svg>
