<?xml version="1.0" encoding="utf-8"?>
<!-- Generator: Adobe Illustrator 19.0.0, SVG Export Plug-In . SVG Version: 6.00 Build 0)  -->
<svg version="1.1" id="Layer_1" xmlns="http://www.w3.org/2000/svg" xmlns:xlink="http://www.w3.org/1999/xlink" x="0px" y="0px"
	 viewBox="84 -104 679.2 720" style="enable-background:new 84 -104 679.2 720;" xml:space="preserve">
<style type="text/css">
	.st0{fill:#005A84;}
</style>
<path class="st0" d="M425.5,52.9c9.3,0,18,1.4,25.3,3.8c-0.4-4.1-1.8-11.5-7.5-16.4c-8.1-7-5.4-22.3-5.4-22.3s1-8.1-3.8-12.7v-6.7
	c0,0,10.3-14.1,3-28.7c0,0-4.3-5.4-3.6-8.7c1.3-6.2-0.5-12.9-2.3-14.4c-1.7-1.5-3.8-9.3-3.8-9.3H424c0,0-2.4,7.8-4.1,9.3
	c-1.7,1.5-3.5,8.2-2.2,14.4c0.7,3.3-3.6,8.7-3.6,8.7c-7.4,14.6,2.9,28.7,2.9,28.7v6.7c-4.8,4.6-3.8,12.7-3.8,12.7s2.8,15.3-5.4,22.3
	c-5.7,4.9-7.1,12.4-7.5,16.4C407.5,54.3,416.2,52.9,425.5,52.9"/>
<path class="st0" d="M446.8,149.8h-5.7v-47.2h5.7V149.8z M428.8,149.8H423v-47.2h5.8V149.8z M410.7,149.8H405v-47.2h5.7V149.8z
	 M463.6,153.3v-44.1c0,0,13.5-10.3,9.7-23.8c-0.1-0.3-0.2-0.6-0.4-0.9c-3.8-11.4-23.3-20.1-47-20.1c-22.5,0-41.3,7.8-46.3,18.4
	c-0.1,0.1-0.1,0.3-0.2,0.4c-0.1,0.2-0.2,0.4-0.3,0.7c-0.2,0.5-0.4,0.9-0.6,1.4c-3.7,13.5,9.7,23.8,9.7,23.8v44.1
	c-6.7,2.5-9.1,7.9-10,11.1c11.2-4.2,24.8-7,39.7-7.7c2.6-0.2,5.3-0.2,7.9-0.2c5.9,0,11.7,0.4,17.1,1.2c11.4,1.3,21.9,4,30.7,7.5
	C473.2,162.3,470.9,156,463.6,153.3"/>
<path class="st0" d="M207.8,486.6c7.4-3.2,15.3-6.3,23.7-9.2v-44.6c0-5.2,2.4-9.3,5.4-9.3c3,0,5.4,4.2,5.4,9.3c0,0.5,0,0.9-0.1,1.4
	v39.8c6-1.8,12.3-3.6,18.8-5.2v-52.6c0-5.2,2.7-9.3,5.9-9.3c3.3,0,5.9,4.2,5.9,9.3c0,0.5,0,0.9-0.1,1.4v48.4
	c7.1-1.6,14.5-3.1,22.1-4.6v-56.8c0-5.2,2.8-9.3,6.3-9.3c3.5,0,6.3,4.2,6.3,9.3c0,0.5,0,0.9-0.1,1.4v53.2c8.1-1.3,16.5-2.5,25.1-3.5
	c0.3,0,0.5-0.1,0.8-0.1v-59.4c0-5.2,2.9-9.3,6.5-9.3s6.5,4.2,6.5,9.3c0,0.5,0,0.9-0.1,1.4v56.7c8.4-0.9,16.9-1.6,25.6-2.1
	c1.1-0.1,2.3-0.2,3.4-0.3v-61.6c0-5.2,3.1-9.3,7-9.3c3.8,0,7,4.2,7,9.3c0,0.5,0,1-0.1,1.4v59.2c9.3-0.6,18.6-0.8,28.2-0.9v-62.9
	c0-5.2,3.1-9.3,6.9-9.3c3.9,0,6.9,3.9,6.9,9.1c0,0.5,0,1.2,0,1.6v61.6c10.5,0.1,20.9,0.6,31.1,1.3v-59.6c0-0.4-0.1-0.9-0.1-1.4
	c0-5.1,3.1-9.3,6.9-9.3c3.8,0,6.9,4.1,7,9.3v62.1c0.7,0.1,1.4,0.2,2.2,0.2c8.3,0.6,16.4,1.3,24.4,2.2v-57.1c0-0.4-0.1-0.9-0.1-1.4
	c0-5.2,2.9-9.3,6.5-9.3s6.5,4.1,6.5,9.3v59.9c0.9,0.1,1.7,0.3,2.5,0.5c7.3,1,14.5,2,21.5,3.2V406c0-0.5-0.1-0.9-0.1-1.4
	c0-5.2,2.8-9.3,6.3-9.3c3.5,0,6.3,4.2,6.3,9.3v57.2c7.9,1.5,15.6,3.1,23.1,4.9v-46c0-0.4-0.1-0.9-0.1-1.4c0-5.1,2.6-9.3,5.9-9.3
	c3.3,0,5.9,4.1,5.9,9.3v50.4c6.7,1.8,13.1,3.6,19.3,5.6v-40.7c0-0.5-0.1-0.9-0.1-1.4c0-5.2,2.4-9.3,5.4-9.3c3,0,5.4,4.1,5.4,9.3
	v45.7c7.6,2.7,14.8,5.6,21.4,8.6v-24.9c0,0,12.1-12.6,8.5-32.8c-0.8-4.5-2.4-9.3-4.7-14c-21.6-45.7-111.5-80-219.1-80
	c-107.6,0-197.5,34.3-219.1,80c-2.4,4.7-4,9.5-4.8,14c-3.5,20.2,8.5,32.8,8.5,32.8"/>
<path class="st0" d="M688.1,552c-0.9-4.2-2.8-8.6-5.6-13c-25.6-42.5-132.4-74.4-260.2-74.4c-127.8,0-234.5,31.8-260.2,74.3
	c-2.8,4.4-4.7,8.8-5.7,13.1c-4.2,18.8,10.1,30.5,10.1,30.5v25.9c9.7-3.3,22.1-6.4,36.7-9.2V551c0-5.5,3.7-9.9,8.3-9.9
	c4.6,0,8.3,4.4,8.3,9.9c0,0.5,0,1-0.1,1.5v43.8c8.8-1.4,18.1-2.7,28.1-3.9v-54.7c0-5.5,4.1-9.9,9.1-9.9c5,0,9,4.1,9,9.6
	c0,0.5,0,1.3-0.1,1.7v51.2c11-1.1,22.5-2.1,34.5-3v-60.9c0-5.5,4.3-9.9,9.6-9.9c5.3,0,9.5,4,9.5,9.5c0,0.5,0.1,1.3,0,1.8V586
	c11.7-0.7,23.8-1.3,36.2-1.8v-64.9c0-5.5,4.5-9.9,9.9-9.9c5.5,0,9.9,4.2,9.9,9.7c0,0.5,0,1.2,0,1.7v62.8c12.3-0.3,24.9-0.5,37.7-0.6
	v-67.4c0-5.5,4.8-9.9,10.7-9.9c5.9,0,10.6,4.2,10.6,9.7c0,0.5,0,1.2,0,1.6v66c12.9,0.1,25.5,0.3,37.8,0.7v-62.9
	c-0.1-0.5,0-1.1,0-1.7c0-5.4,4.4-9.7,9.8-9.7c5.4,0,9.9,4.4,9.9,9.9v65.1c12.4,0.5,24.5,1.1,36.2,1.8l0-58.4c-0.1-0.5,0-1.2,0-1.7
	c0-5.5,4.2-9.6,9.5-9.6c5.3,0,9.6,4.4,9.6,9.9v61.1c12,0.9,23.5,2,34.5,3.1v-51.5c-0.1-0.5,0-1.2,0-1.7c0-5.5,4-9.6,9-9.6
	c5,0,9,4.4,9.1,9.9v55.1c9.9,1.2,19.3,2.6,28.1,4.1v-44.3c-0.1-0.5,0-1.1,0-1.6c0-5.4,3.6-9.7,8.2-9.7c4.6,0,8.3,4.4,8.3,9.9v48.7
	c13.4,2.7,24.9,5.6,33.9,8.7v-25.9C678,582.5,692.3,570.8,688.1,552"/>
<path class="st0" d="M562.2,312.6l-2.5,3.1h-3.2l-2.4-3.1v-15.4l2.4-3.4h3.3l2.4,3.4 M540,303.6l-3,3.5h-3.8l-2.9-3.5v-17.5l2.9-3.8
	h3.9l2.9,3.8L540,303.6L540,303.6z M513.9,297.8l-3.2,3.8h-4.1l-3.1-3.8v-19l3.1-4.2h4.2l3.1,4.2V297.8z M488.1,292.1l-3.6,3.8H480
	l-3.5-3.8v-19l3.4-4.2h4.7l3.4,4.2L488.1,292.1L488.1,292.1z M461.8,289.4l-3.7,3.8h-4.7l-3.6-3.8v-19l3.6-4.2h4.8l3.6,4.2
	L461.8,289.4L461.8,289.4z M432.7,287.8l-4.2,3.8h-5.3l-4.1-3.8v-19l4.1-4.2h5.5l4,4.2L432.7,287.8L432.7,287.8z M402.1,289.4
	l-3.7,3.8h-4.7l-3.6-3.8v-19l3.6-4.2h4.9l3.6,4.2V289.4z M375.4,292.1l-3.6,3.8h-4.6l-3.5-3.8v-19l3.4-4.2h4.7l3.4,4.2V292.1z
	 M348.4,297.8l-3.2,3.8h-4.1l-3.1-3.8v-19l3.1-4.2h4.2l3.1,4.2L348.4,297.8L348.4,297.8z M321.5,303.6l-2.9,3.5h-3.8l-2.9-3.5v-17.5
	l2.9-3.8h3.9l2.9,3.8V303.6z M297.7,312.6l-2.4,3.1h-3.2l-2.4-3.1v-15.4l2.4-3.4h3.3l2.4,3.4L297.7,312.6L297.7,312.6z M591.6,336.2
	c-6.3-24.3-14.8-62.1-40.7-96.5c-28.3-43.5-74-71.7-125.7-71.7c-2,0-4,0.1-6,0.2c-0.6,0-1.2,0-1.8,0.1c-0.1,0-0.2,0-0.3,0
	c-2,0.1-4.1,0.3-6.3,0.5c-42.9,4.4-80.7,28.3-106.4,63.8C275,269,266.5,311,260.8,335.8c-2.4,10.6-14.6,24-14.6,24
	c1.6-1,1.5-0.7,0,0c0.3-0.1,0.7-0.3,1.1-0.4c41-23.5,104.6-38.6,176-38.6c76.5,0,143.9,17.3,184.4,43.7
	C604.9,360.8,594.2,346.4,591.6,336.2"/>
</svg>
