<?xml version="1.0" encoding="utf-8"?>
<!-- Generator: Adobe Illustrator 19.0.0, SVG Export Plug-In . SVG Version: 6.00 Build 0)  -->
<svg version="1.1" id="Layer_1" xmlns="http://www.w3.org/2000/svg" xmlns:xlink="http://www.w3.org/1999/xlink" x="0px" y="0px"
	 viewBox="-212 214 86 86" style="enable-background:new -212 214 86 86;" xml:space="preserve">
<title>Democratic party logo</title>
<g>
	<path d="M-169,300c-23.7,0-43-19.3-43-43c0-23.7,19.3-43,43-43c23.7,0,43,19.3,43,43C-126,280.7-145.3,300-169,300z M-169,225
		c-17.6,0-32,14.4-32,32c0,17.6,14.4,32,32,32c17.6,0,32-14.4,32-32C-137,239.4-151.4,225-169,225z"/>
</g>
<path d="M-183.5,239.5v35h16.5c9.7,0,17.5-7.8,17.5-17.5s-7.8-17.5-17.5-17.5H-183.5z M-173.5,248h5c5,0,9,4,9,9c0,5-4,9-9,9h-5V248
	z"/>
</svg>
